# Blender v2.79 (sub 0) OBJ File: 'Line.blend'
# www.blender.org
mtllib Line.mtl
o Cylinder
v -0.000000 0.017188 -0.102290
v -1.000000 -0.017188 -0.102290
v -0.000000 0.082732 -0.058308
v -1.000000 0.075502 -0.071120
v -1.000000 0.101499 0.012893
v -0.000000 0.102064 0.007156
v -0.000000 0.073327 0.069767
v -1.000000 0.062654 0.080888
v -0.000000 0.012893 0.101499
v -1.000000 -0.002518 0.101183
v 0.000000 -0.062654 0.080888
v -1.000000 -0.067110 0.077230
v 0.000000 -0.103677 0.003098
v -1.000000 -0.102064 0.007156
v -1.000000 -0.082732 -0.058308
v 0.000000 -0.067110 -0.077231
v 2.060613 -116.335022 116.353241
v -2.060654 116.334991 116.353271
v 2.060654 -116.334991 -116.353271
v -2.060613 116.335022 -116.353241
vt 0.000000 0.000000
vt 1.000000 0.000000
vt 1.000000 1.000000
vt 0.000000 0.000000
vt 1.000000 0.000000
vt 1.000000 1.000000
vt 0.000000 0.000000
vt 1.000000 1.000000
vt 0.000000 1.000000
vt 0.000000 0.000000
vt 1.000000 0.000000
vt 1.000000 1.000000
vt 0.000000 0.000000
vt 1.000000 0.000000
vt 1.000000 1.000000
vt 1.000000 0.000000
vt 0.000000 0.000000
vt 1.000000 0.000000
vt 1.000000 1.000000
vt 0.000000 1.000000
vt 0.000000 0.000000
vt 1.000000 1.000000
vt 0.000000 1.000000
vt 1.000000 0.000000
vt 1.000000 1.000000
vt 0.000000 0.000000
vt 1.000000 0.000000
vt 1.000000 1.000000
vt 0.000000 1.000000
vt 0.000000 0.000000
vt 1.000000 0.000000
vt 1.000000 0.000000
vt 0.500000 1.000000
vt 0.853553 0.853553
vt 1.000000 0.500000
vt 0.853553 0.146447
vt 0.500000 0.000000
vt 0.146447 0.146447
vt 0.000000 0.500000
vt 0.146447 0.853553
vt 0.500000 1.000000
vt 0.853553 0.853553
vt 1.000000 0.500000
vt 0.853553 0.146447
vt 0.500000 0.000000
vt 0.146447 0.146447
vt 0.000000 0.500000
vt 0.146447 0.853553
vt 0.999900 0.999900
vt 0.000100 0.999900
vt 0.000100 0.000100
vt 0.999900 0.000100
vn 0.0066 0.5572 -0.8304
vn 0.0049 0.4649 0.8854
vn -0.0027 0.9570 -0.2902
vn 0.0064 -0.9101 -0.4143
vn 0.0098 -0.2849 -0.9585
vn -0.0110 0.3187 -0.9478
vn -0.0011 0.8881 0.4596
vn 0.0011 -0.3030 0.9530
vn -0.0049 0.2973 0.9548
vn 0.0014 -0.8895 0.4570
vn -0.0027 -0.9590 -0.2832
vn -0.0070 -0.5572 -0.8304
vn -1.0000 0.0000 0.0000
vn 1.0000 0.0000 -0.0000
vn -0.9998 -0.0177 -0.0000
usemtl None
s off
f 4/1/1 3/2/1 1/3/1
f 8/4/2 9/5/2 7/6/2
f 6/7/3 3/2/3 4/8/3 5/9/3
f 15/10/4 16/11/4 13/12/4
f 2/13/5 1/14/5 16/15/5
f 2/13/6 4/16/6 1/3/6
f 7/17/7 6/18/7 5/19/7 8/20/7
f 11/21/8 9/5/8 10/22/8 12/23/8
f 8/4/9 10/24/9 9/25/9
f 13/26/10 11/27/10 12/28/10 14/29/10
f 14/30/11 15/31/11 13/12/11
f 15/10/12 2/32/12 16/15/12
f 12/33/13 10/34/13 8/35/13 5/36/13 4/37/13 2/38/13 15/39/13 14/40/13
f 9/41/14 11/42/14 13/43/14 16/44/14 1/45/14 3/46/14 6/47/14 7/48/14
f 17/49/15 18/50/15 20/51/15 19/52/15
